<!--?xml version="1.0" standalone="no"?-->

<svg version="1.0" xmlns="http://www.w3.org/2000/svg" width="300.000000pt" height="300.000000pt" viewBox="0 0 300.000000 300.000000" preserveAspectRatio="xMidYMid meet">
<g transform="translate(0.000000,300.000000) scale(0.100000,-0.100000)" fill="#030303" stroke="none">
<path class="node" id="node1" d="M1676 2528 c-11 -6 -147 -139 -303 -294 l-283 -284 -237 0 c-236 0
-238 0 -268 -24 l-30 -24 -3 -353 c-2 -254 1 -361 9 -381 23 -56 32 -58 289
-58 l235 0 296 -295 c294 -294 295 -295 337 -295 52 0 87 21 101 62 8 21 11
322 11 955 0 845 -1 927 -17 953 -27 46 -92 64 -137 38z"></path>
<path class="node" id="node2" d="M2144 1923 c-39 -8 -69 -50 -69 -97 0 -51 11 -65 83 -113 75 -50 104
-100 105 -177 1 -86 -26 -132 -108 -191 -95 -68 -110 -122 -51 -181 56 -56
131 -38 232 58 170 160 179 421 22 593 -71 78 -154 120 -214 108z"></path>
</g>
<g transform="translate(0.000000,300.000000) scale(0.100000,-0.100000)" fill="#ADADAD" stroke="none">

</g>
</svg>